<?xml version="1.0" standalone="no"?>
<!DOCTYPE svg PUBLIC "-//W3C//DTD SVG 20010904//EN"
 "http://www.w3.org/TR/2001/REC-SVG-20010904/DTD/svg10.dtd">
<svg version="1.0" xmlns="http://www.w3.org/2000/svg"
 width="784.000000pt" height="408.000000pt" viewBox="0 0 784.000000 408.000000"
 preserveAspectRatio="xMidYMid meet">

<g transform="translate(0.000000,408.000000) scale(0.100000,-0.100000)"
fill="#000000" stroke="none">
<path d="M0 2040 l0 -2040 3920 0 3920 0 0 2040 0 2040 -3920 0 -3920 0 0
-2040z m1000 1963 c154 -63 198 -283 79 -401 -23 -22 -54 -46 -70 -53 l-29
-11 0 -173 0 -173 201 -206 201 -206 128 0 c116 0 129 -2 146 -21 22 -24 25
-89 5 -113 -11 -13 -37 -16 -163 -16 -109 0 -156 4 -176 14 -15 8 -132 120
-259 249 l-233 235 0 201 0 201 -39 19 c-93 48 -151 158 -136 259 25 168 188
260 345 195z m2593 -323 c293 -64 462 -254 493 -557 l7 -63 -226 0 -226 0 -15
53 c-21 74 -81 140 -149 165 -80 30 -161 36 -240 18 -83 -19 -113 -35 -156
-78 -92 -93 -94 -218 -5 -297 52 -45 94 -61 395 -145 198 -56 314 -97 384
-136 96 -54 185 -141 227 -223 72 -143 76 -385 7 -559 -78 -199 -261 -337
-524 -394 -111 -24 -376 -24 -498 0 -207 40 -351 118 -444 241 -75 98 -126
234 -140 372 l-6 53 230 0 231 0 6 -45 c15 -94 108 -187 225 -222 78 -24 229
-23 301 1 71 24 133 67 159 110 31 50 45 132 32 183 -25 92 -91 136 -296 194
-77 22 -187 53 -245 70 -340 97 -485 204 -552 409 -29 90 -36 287 -13 385 65
279 285 454 614 485 120 12 320 2 424 -20z m2325 -230 l2 -220 -307 -2 -308
-3 -3 -872 -2 -873 -240 0 -240 0 -2 873 -3 872 -300 3 -300 2 -3 215 c-2 118
-1 218 1 222 3 5 387 7 854 6 l848 -3 3 -220z m740 -665 l2 -885 429 0 c382 0
430 -2 435 -16 9 -23 7 -377 -2 -392 -7 -10 -150 -12 -683 -10 l-674 3 -3
1085 c-1 597 0 1090 2 1095 2 6 92 9 247 8 l244 -3 3 -885z m-6143 576 c98
-45 155 -129 155 -230 0 -99 -57 -194 -137 -228 l-33 -13 0 -109 c0 -90 3
-110 16 -115 9 -3 104 -6 212 -6 l197 1 160 -166 160 -166 34 12 c53 18 145 6
199 -28 90 -55 139 -173 114 -271 -49 -186 -279 -256 -416 -127 -72 67 -97
183 -60 276 l17 40 -45 47 c-25 26 -82 86 -128 135 l-83 87 -171 0 c-94 0
-187 5 -207 10 -57 16 -102 51 -126 100 -20 38 -23 60 -23 162 0 116 0 119
-24 128 -44 16 -103 79 -126 132 -43 99 -12 223 71 290 72 58 169 73 244 39z
m1623 -798 c2 -698 0 -814 -13 -853 -21 -64 -91 -140 -161 -175 l-59 -30 -585
0 c-578 0 -586 0 -632 22 -63 29 -132 94 -160 151 -22 46 -23 55 -23 317 l0
270 87 0 88 0 2 -235 c3 -267 8 -283 83 -320 40 -19 64 -20 559 -20 514 0 519
0 557 22 25 14 46 37 59 63 19 40 20 62 20 733 l0 692 -367 0 c-215 0 -374 4
-383 10 -25 16 -20 104 8 132 21 21 34 23 165 28 78 3 279 4 447 3 l305 -2 3
-808z m-1518 -1625 c45 -23 72 -59 84 -110 l6 -28 -60 0 c-39 0 -60 4 -60 12
0 25 -34 48 -69 48 -49 0 -81 -24 -81 -60 0 -36 25 -54 109 -80 121 -38 171
-87 171 -168 0 -82 -40 -139 -119 -167 -116 -41 -245 4 -280 98 -22 58 -16 67
42 67 49 0 53 -2 64 -30 14 -36 54 -54 108 -47 44 6 65 28 65 69 0 34 -22 50
-120 83 -126 43 -168 94 -157 192 10 88 83 143 192 143 43 0 74 -7 105 -22z
m1465 -10 c66 -36 95 -88 95 -169 0 -64 -19 -109 -60 -141 l-31 -25 55 -102
c31 -56 56 -104 56 -106 0 -3 -26 -5 -58 -5 -65 0 -57 -8 -133 135 -27 49 -28
50 -78 53 l-51 3 0 -95 0 -96 -55 0 -55 0 0 288 0 287 142 -5 c106 -4 151 -10
173 -22z m875 -264 l0 -284 -55 0 -55 0 0 288 0 287 55 -3 55 -4 0 -284z
m1200 236 l0 -50 -120 0 -120 0 0 -65 0 -65 104 0 104 0 4 -46 c2 -25 1 -47
-1 -50 -2 -2 -51 -4 -108 -4 l-103 0 0 -70 0 -70 120 0 120 0 0 -50 0 -50
-175 2 -175 3 -1 275 c0 151 0 280 0 285 1 6 64 9 176 7 l175 -3 0 -49z m506
25 c51 -32 117 -117 112 -144 -2 -12 -15 -14 -58 -12 -49 2 -58 7 -83 37 -48
58 -136 67 -201 21 -91 -64 -87 -268 6 -325 69 -43 178 -20 206 43 10 22 17
25 68 25 l57 0 -7 -32 c-18 -93 -125 -167 -242 -168 -116 -1 -212 66 -254 176
-43 114 -11 276 68 345 62 55 107 70 198 67 70 -3 87 -7 130 -33z m1134 -208
l0 -232 112 0 113 0 3 -53 3 -52 -173 2 c-95 2 -172 6 -170 11 1 4 2 132 2
285 l0 277 55 -3 55 -4 0 -231z m1256 206 c66 -47 79 -151 27 -208 -26 -28
-26 -28 -7 -44 41 -33 54 -64 54 -126 0 -76 -24 -119 -83 -145 -35 -16 -66
-20 -184 -20 l-143 0 0 283 c0 156 2 286 4 288 2 2 71 2 153 -1 133 -4 151 -7
179 -27z m498 3 c36 -27 66 -77 66 -111 0 -24 -108 -21 -117 3 -11 27 -35 41
-73 42 -70 0 -104 -56 -61 -99 10 -10 51 -29 91 -42 128 -40 173 -85 173 -172
0 -69 -26 -114 -84 -146 -50 -28 -150 -39 -203 -21 -69 22 -126 88 -126 145 0
24 3 25 54 25 49 0 54 -2 60 -25 14 -56 129 -73 168 -25 41 51 18 81 -92 120
-137 48 -175 87 -175 179 1 108 73 164 206 159 65 -3 81 -7 113 -32z m-6374
-26 l0 -50 -120 0 -120 0 0 -65 0 -65 110 0 110 0 0 -50 0 -50 -110 0 -110 0
0 -70 0 -70 120 0 120 0 0 -50 0 -50 -175 0 -175 0 0 285 0 285 175 0 175 0 0
-50z m470 0 l0 -50 -120 0 -120 0 0 -65 0 -65 110 0 110 0 0 -50 0 -50 -110 0
-110 0 0 -70 0 -70 120 0 120 0 0 -50 0 -50 -175 0 -175 0 0 285 0 285 175 0
175 0 0 -50z m790 -162 c58 -188 80 -239 80 -192 0 9 23 89 51 178 27 88 55
176 60 194 10 31 12 32 70 32 58 0 60 -1 53 -22 -3 -13 -42 -131 -84 -263 -43
-132 -81 -250 -85 -263 -6 -21 -11 -23 -77 -20 l-71 3 -39 120 c-21 66 -61
188 -88 271 -28 83 -50 156 -50 163 0 8 17 11 57 9 l58 -3 65 -207z m1260 162
l0 -50 -75 0 -75 0 0 -235 0 -236 -57 3 -58 3 -2 230 -2 230 -75 3 -76 3 0 49
0 50 210 0 210 0 0 -50z m1300 -62 l0 -113 113 3 113 3 -1 107 0 107 58 3 57
3 0 -286 0 -286 -57 3 -58 3 1 118 2 117 -114 0 -113 0 -3 -117 -3 -118 -57
-3 -58 -3 0 286 0 285 60 0 60 0 0 -112z m1476 12 c17 -52 59 -174 93 -270 34
-96 61 -181 61 -188 0 -10 -15 -12 -57 -10 l-57 3 -17 50 -17 50 -110 3 -111
3 -17 -56 -18 -55 -58 0 c-32 0 -58 4 -58 8 0 4 18 62 41 127 80 234 127 370
139 403 l12 33 71 -3 70 -3 33 -95z"/>
<path d="M847 3864 c-52 -28 -63 -104 -22 -152 33 -39 74 -48 118 -27 66 31
77 107 23 161 -38 38 -73 43 -119 18z"/>
<path d="M359 3201 c-23 -24 -29 -38 -29 -74 0 -38 5 -49 31 -71 55 -46 127
-28 155 39 41 98 -82 181 -157 106z"/>
<path d="M1300 2193 c-22 -9 -48 -45 -54 -76 -20 -99 107 -163 176 -90 18 19
23 36 23 75 0 42 -4 53 -28 74 -27 23 -80 31 -117 17z"/>
<path d="M1880 758 l0 -83 80 5 c90 6 109 20 110 81 0 58 -31 79 -118 79 l-72
0 0 -82z"/>
<path d="M6840 788 l0 -63 62 3 c72 4 98 21 98 63 0 40 -33 59 -102 59 l-58 0
0 -62z"/>
<path d="M6840 553 l0 -73 54 0 c69 0 103 13 117 44 14 30 5 72 -19 85 -9 5
-47 11 -84 13 l-68 4 0 -73z"/>
<path d="M6332 712 c-18 -59 -32 -110 -32 -114 0 -5 32 -8 70 -8 47 0 70 4 70
12 0 18 -64 218 -70 218 -3 0 -20 -48 -38 -108z"/>
</g>
</svg>
